<?xml version="1.0" encoding="UTF-8" standalone="no"?>
<!-- Generator: Adobe Illustrator 16.0.0, SVG Export Plug-In . SVG Version: 6.00 Build 0)  -->

<svg
   xmlns:dc="http://purl.org/dc/elements/1.1/"
   xmlns:cc="http://creativecommons.org/ns#"
   xmlns:rdf="http://www.w3.org/1999/02/22-rdf-syntax-ns#"
   xmlns:svg="http://www.w3.org/2000/svg"
   xmlns="http://www.w3.org/2000/svg"
   xmlns:sodipodi="http://sodipodi.sourceforge.net/DTD/sodipodi-0.dtd"
   xmlns:inkscape="http://www.inkscape.org/namespaces/inkscape"
   version="1.1"
   id="Layer_1"
   x="0px"
   y="0px"
   width="256"
   height="256"
   viewBox="0 0 256.00001 256"
   enable-background="new 0 0 136.913 136.914"
   xml:space="preserve"
   inkscape:version="0.48.5 r10040"
   sodipodi:docname="RoundIcons_FreeSet-31.svg"><metadata
     id="metadata6016"><rdf:RDF><cc:Work
         rdf:about=""><dc:format>image/svg+xml</dc:format><dc:type
           rdf:resource="http://purl.org/dc/dcmitype/StillImage" /><dc:title></dc:title></cc:Work></rdf:RDF></metadata><defs
     id="defs6014" /><sodipodi:namedview
     pagecolor="#ffffff"
     bordercolor="#666666"
     borderopacity="1"
     objecttolerance="10"
     gridtolerance="10"
     guidetolerance="10"
     inkscape:pageopacity="0"
     inkscape:pageshadow="2"
     inkscape:window-width="1002"
     inkscape:window-height="701"
     id="namedview6012"
     showgrid="false"
     inkscape:zoom="1.7237098"
     inkscape:cx="68.456497"
     inkscape:cy="114.86853"
     inkscape:window-x="0"
     inkscape:window-y="0"
     inkscape:window-maximized="0"
     inkscape:current-layer="Layer_1" /><g
     id="g5956"
     transform="matrix(1.4210602,0,0,1.4210602,29.84291,27.594059)"><g
       id="g5958"><g
         id="g5960"><g
           id="g5962"><g
             id="g5964"><circle
               cx="68.456001"
               cy="68.458"
               r="63.333"
               id="circle5966"
               sodipodi:cx="68.456001"
               sodipodi:cy="68.458"
               sodipodi:rx="63.333"
               sodipodi:ry="63.333"
               style="fill:#344e5d"
               d="m 131.789,68.458 c 0,34.97785 -28.35515,63.333 -63.332999,63.333 -34.97785,0 -63.3329999,-28.35515 -63.3329999,-63.333 0,-34.97785 28.3551499,-63.333 63.3329999,-63.333 34.977849,0 63.332999,28.35515 63.332999,63.333 z" /></g></g></g></g><g
       id="g5968"><g
         id="g5970"><path
           d="m 73.041,62.782 h 35.516 c 2.531,0 4.584,-6.766 4.584,-6.766 0,0 -2.053,-6.766 -4.584,-6.766 H 73.041 c -2.531,10e-4 -2.531,13.532 0,13.532 z"
           id="path5972"
           inkscape:connector-curvature="0"
           style="fill:#67b8cb" /><path
           d="M 99.391,54.585 H 80.164 c -1.125,0 -2.035,0.625 -2.035,1.398 0,0.771 0.91,1.398 2.035,1.398 h 19.227 c 1.125,0 2.035,-0.627 2.035,-1.398 0,-0.773 -0.91,-1.398 -2.035,-1.398 z"
           id="path5974"
           inkscape:connector-curvature="0"
           style="fill:#e5e5e5" /><path
           d="m 107.248,54.585 h -2.039 c -1.125,0 -2.035,0.625 -2.035,1.398 0,0.771 0.91,1.398 2.035,1.398 h 2.039 c 1.125,0 2.035,-0.627 2.035,-1.398 0,-0.773 -0.91,-1.398 -2.035,-1.398 z"
           id="path5976"
           inkscape:connector-curvature="0"
           style="fill:#e5e5e5" /></g><g
         id="g5978"><path
           d="M 69.332,34.991 H 33.816 c -2.531,0 -4.584,6.766 -4.584,6.766 0,0 2.053,6.766 4.584,6.766 h 35.516 c 2.531,-0.001 2.531,-13.532 0,-13.532 z"
           id="path5980"
           inkscape:connector-curvature="0"
           style="fill:#67b8cb" /><path
           d="m 42.982,43.188 h 19.227 c 1.125,0 2.035,-0.625 2.035,-1.398 0,-0.773 -0.91,-1.4 -2.035,-1.4 H 42.982 c -1.125,0 -2.035,0.627 -2.035,1.4 0,0.773 0.91,1.398 2.035,1.398 z"
           id="path5982"
           inkscape:connector-curvature="0"
           style="fill:#e5e5e5" /><path
           d="m 35.125,43.188 h 2.039 c 1.125,0 2.037,-0.625 2.037,-1.398 0,-0.773 -0.912,-1.4 -2.037,-1.4 h -2.039 c -1.125,0 -2.035,0.627 -2.035,1.4 0,0.773 0.91,1.398 2.035,1.398 z"
           id="path5984"
           inkscape:connector-curvature="0"
           style="fill:#e5e5e5" /></g><g
         id="g5986"><path
           d="M 69.332,65.642 H 33.816 c -2.531,0 -4.584,6.766 -4.584,6.766 0,0 2.053,6.766 4.584,6.766 h 35.516 c 2.531,-0.001 2.531,-13.532 0,-13.532 z"
           id="path5988"
           inkscape:connector-curvature="0"
           style="fill:#67b8cb" /><path
           d="m 42.982,73.841 h 19.227 c 1.125,0 2.035,-0.627 2.035,-1.4 0,-0.771 -0.91,-1.398 -2.035,-1.398 H 42.982 c -1.125,0 -2.035,0.627 -2.035,1.398 0,0.773 0.91,1.4 2.035,1.4 z"
           id="path5990"
           inkscape:connector-curvature="0"
           style="fill:#e5e5e5" /><path
           d="m 35.125,73.841 h 2.039 c 1.125,0 2.037,-0.627 2.037,-1.4 0,-0.771 -0.912,-1.398 -2.037,-1.398 h -2.039 c -1.125,0 -2.035,0.627 -2.035,1.398 0,0.773 0.91,1.4 2.035,1.4 z"
           id="path5992"
           inkscape:connector-curvature="0"
           style="fill:#e5e5e5" /></g><g
         id="g5994"><g
           id="g5996"><ellipse
             cx="71.158997"
             cy="116.913"
             rx="15.425"
             ry="5.4260001"
             id="ellipse5998"
             sodipodi:cx="71.158997"
             sodipodi:cy="116.913"
             sodipodi:rx="15.425"
             sodipodi:ry="5.4260001"
             style="fill:#9d5d26"
             d="m 86.583997,116.913 c 0,2.9967 -6.906008,5.426 -15.425,5.426 -8.518993,0 -15.425001,-2.4293 -15.425001,-5.426 0,-2.9967 6.906008,-5.426 15.425001,-5.426 8.518992,0 15.425,2.4293 15.425,5.426 z" /></g><g
           id="g6000"><ellipse
             cx="71.158997"
             cy="115.894"
             rx="14.261"
             ry="4.0739999"
             id="ellipse6002"
             sodipodi:cx="71.158997"
             sodipodi:cy="115.894"
             sodipodi:rx="14.261"
             sodipodi:ry="4.0739999"
             style="fill:#ae722d"
             d="m 85.419996,115.894 c 0,2.25001 -6.384867,4.074 -14.260999,4.074 -7.876133,0 -14.261,-1.82399 -14.261,-4.074 0,-2.25001 6.384867,-4.074 14.261,-4.074 7.876132,0 14.260999,1.82399 14.260999,4.074 z" /></g><g
           id="g6004"><path
             d="m 75.877,114.075 c 0,4.701 -9.168,4.701 -9.168,0 V 27.644 c 0,-4.701 2.053,-8.514 4.584,-8.514 l 0,0 c 2.531,0 4.584,3.813 4.584,8.514 v 86.431 z"
             id="path6006"
             inkscape:connector-curvature="0"
             style="fill:#ae722d" /></g><g
           id="g6008"><path
             d="m 75.877,114.075 c 0,3.482 -5.029,4.385 -7.637,2.709 -0.914,-0.586 -1.447,-91.111 3.053,-97.654 l 0,0 c 2.531,0 4.584,3.813 4.584,8.514 v 86.431 z"
             id="path6010"
             inkscape:connector-curvature="0"
             style="fill:#bb813c" /></g></g></g></g></svg>