<?xml version="1.0" encoding="UTF-8" standalone="no"?>
<!-- Created with Inkscape (http://www.inkscape.org/) -->

<svg
   xmlns:dc="http://purl.org/dc/elements/1.1/"
   xmlns:cc="http://creativecommons.org/ns#"
   xmlns:rdf="http://www.w3.org/1999/02/22-rdf-syntax-ns#"
   xmlns:svg="http://www.w3.org/2000/svg"
   xmlns="http://www.w3.org/2000/svg"
   xmlns:sodipodi="http://sodipodi.sourceforge.net/DTD/sodipodi-0.dtd"
   xmlns:inkscape="http://www.inkscape.org/namespaces/inkscape"
   width="256"
   height="256"
   id="svg2"
   version="1.1"
   inkscape:version="0.48.5 r10040"
   sodipodi:docname="New document 1">
  <defs
     id="defs4" />
  <sodipodi:namedview
     id="base"
     pagecolor="#ffffff"
     bordercolor="#666666"
     borderopacity="1.0"
     inkscape:pageopacity="0.0"
     inkscape:pageshadow="2"
     inkscape:zoom="1.4"
     inkscape:cx="132.56339"
     inkscape:cy="138.77865"
     inkscape:document-units="px"
     inkscape:current-layer="layer1"
     showgrid="false"
     inkscape:window-width="1101"
     inkscape:window-height="719"
     inkscape:window-x="183"
     inkscape:window-y="4"
     inkscape:window-maximized="0" />
  <metadata
     id="metadata7">
    <rdf:RDF>
      <cc:Work
         rdf:about="">
        <dc:format>image/svg+xml</dc:format>
        <dc:type
           rdf:resource="http://purl.org/dc/dcmitype/StillImage" />
        <dc:title></dc:title>
      </cc:Work>
    </rdf:RDF>
  </metadata>
  <g
     inkscape:label="Layer 1"
     inkscape:groupmode="layer"
     id="layer1"
     transform="translate(0,-796.36218)">
    <g
       id="g3349"
       transform="matrix(-1.7745834,1.4370206,-1.4370206,-1.7745834,164.45094,873.84946)">
      <path
         id="path3333"
         d="M 16.002,1 C 21.493,1 27.927,3.039 30.22,5.981 30.216,5.978 16.002,32 16.002,32 16.002,32 1.805,5.978 1.773,5.997 3.999,2.955 10.504,1 16.002,1 z"
         inkscape:connector-curvature="0"
         style="fill:#f4b459" />
      <path
         id="path3335"
         d="m 16.002,0 c 5.491,0 13.915,2.536 13.915,2.536 L 16.002,28.001 2.097,2.588 C 2.097,2.588 10.504,0 16.002,0 z"
         inkscape:connector-curvature="0"
         style="fill:#f1d999" />
      <path
         id="path3337"
         d="m 12.502,8 c 1.381,0 2.5,1.12 2.5,2.5 0,1.38 -1.119,2.5 -2.5,2.5 -1.381,0 -2.5,-1.119 -2.5,-2.5 0,-1.381 1.119,-2.5 2.5,-2.5 z"
         inkscape:connector-curvature="0"
         style="fill:#d07c40" />
      <path
         id="path3339"
         d="M 30.047,1.918 C 25.589,0.646 20.891,0.001 16.082,0.001 h -0.003 c -4.872,0 -9.628,0.661 -14.136,1.966 -1.469,0.425 -2.288,1.87 -1.828,3.229 0.68,2.013 2.91,1.795 3.591,1.666 3.94,-1.133 8.132,-1.891 12.404,-1.891 h 0.003 c 4.251,0 8.366,0.755 12.291,1.875 1.471,0.42 3.031,-0.344 3.484,-1.705 0.454,-1.36 -0.37,-2.804 -1.841,-3.223 z"
         inkscape:connector-curvature="0"
         style="fill:#bb6f39" />
      <path
         id="path3341"
         d="m 22.502,10 c -3.59,0 -6.5,2.91 -6.5,6.501 0,3.077 2.141,5.648 5.014,6.321 1.997,-3.656 4.234,-7.75 6.004,-10.989 C 25.85,10.7 24.259,10 22.502,10 z"
         inkscape:connector-curvature="0"
         style="fill:#bf392c" />
    </g>
    <g
       id="g3512"
       transform="matrix(2.4356873,0,0,2.4356873,138.65664,889.78078)">
      <path
         id="path3486"
         d="M 18,0 H 14 C 8.477,0 1,4.478 1,10 v 1 c 0,0.553 0.447,1 1,1 h 28 c 0.553,0 1,-0.447 1,-1 V 10 C 31,4.478 23.523,0 18,0 z M 1,28 c 0,1.105 0.896,2 2,2 h 26 c 1.104,0 2,-0.895 2,-2 V 26 H 1 v 2 z"
         inkscape:connector-curvature="0"
         style="fill:#ddaf6d" />
      <path
         id="path3488"
         d="m 2,22 h 28 c 1.104,0 2,0.896 2,2 0,1.105 -0.896,2 -2,2 H 2 C 0.896,26 0,25.105 0,24 0,22.896 0.896,22 2,22 z"
         inkscape:connector-curvature="0"
         style="fill:#bb6f39" />
      <path
         id="path3490"
         d="m 2,18 h 28 v 4 h -2 l -3,3 -2.996,-3 H 2 v -4 z"
         inkscape:connector-curvature="0"
         style="fill:#efc75e" />
      <path
         id="path3492"
         d="M 30,15.051 V 15 H 2 v 0.051 C 0.859,15.282 0,16.29 0,17.5 0,18.881 1.119,20 2.5,20 3.709,20 4.718,19.143 4.949,18 H 9 c 0,1.104 1.119,2 2.5,2 1.381,0 2.5,-0.896 2.5,-2 h 4 c 0,1.104 1.119,2 2.5,2 1.381,0 2.5,-0.896 2.5,-2 h 4.051 c 0.231,1.143 1.239,2 2.449,2 1.381,0 2.5,-1.119 2.5,-2.5 0,-1.21 -0.857,-2.218 -2,-2.449 z"
         inkscape:connector-curvature="0"
         style="fill:#3db39e" />
      <path
         id="path3494"
         d="m 2,12 h 28 v 3 H 2 v -3 z"
         inkscape:connector-curvature="0"
         style="fill:#bf392c" />
      <g
         id="g3496"
         style="fill:#c69d63">
        <path
           id="path3498"
           d="M 2,12 H 4 C 3.447,12 3,11.553 3,11 V 10 C 3,4.478 10.477,0 16,0 H 14 C 8.477,0 1,4.478 1,10 v 1 c 0,0.553 0.447,1 1,1 z M 3,28 V 26 H 1 v 2 c 0,1.105 0.896,2 2,2 H 5 C 3.896,30 3,29.105 3,28 z"
           inkscape:connector-curvature="0" />
      </g>
      <path
         id="path3500"
         d="M 2,24 C 2,22.896 2.896,22 4,22 H 2 c -1.104,0 -2,0.896 -2,2 0,1.105 0.896,2 2,2 H 4 C 2.896,26 2,25.105 2,24 z"
         inkscape:connector-curvature="0"
         style="fill:#a86433" />
      <g
         id="g3502"
         style="fill:#37a18e">
        <path
           id="path3504"
           d="M 2,17.5 C 2,16.29 2.859,15.282 4,15.051 V 15 H 2 v 0.051 C 0.859,15.282 0,16.29 0,17.5 0,18.881 1.119,20 2.5,20 2.854,20 3.188,19.919 3.494,19.786 2.615,19.398 2,18.521 2,17.5 z M 11,18 H 9 c 0,1.104 1.119,2 2.5,2 0.356,0 0.693,-0.062 1,-0.169 C 11.618,19.521 11,18.82 11,18 z m 9,0 h -2 c 0,1.104 1.119,2 2.5,2 0.355,0 0.693,-0.062 1,-0.169 C 20.618,19.521 20,18.82 20,18 z m 9.051,0 h -2 c 0.231,1.143 1.239,2 2.449,2 0.357,0 0.697,-0.078 1.006,-0.214 C 29.77,19.465 29.215,18.807 29.051,18 z"
           inkscape:connector-curvature="0" />
      </g>
    </g>
    <g
       id="g4581"
       transform="matrix(2.283314,0,0,2.283314,36.599215,923.76421)">
      <g
         id="g4561"
         style="fill:#f6c37a">
        <path
           id="path4563"
           d="M 3.664,22.673 22.436,3.901 c 0.209,-0.38 0.168,-0.86 -0.154,-1.183 -1.951,-1.952 -5.117,-1.952 -7.07,0 L 2.483,15.447 c -1.952,1.952 -1.952,5.118 0,7.071 0.322,0.322 0.801,0.363 1.181,0.155 z M 28.398,9.264 9.059,28.603 c -0.141,0.366 -0.067,0.794 0.227,1.089 1.992,1.992 5.223,1.992 7.215,0 L 29.487,16.706 c 1.992,-1.992 1.992,-5.222 0,-7.214 C 29.192,9.197 28.764,9.124 28.398,9.264 z"
           inkscape:connector-curvature="0" />
      </g>
      <path
         id="path4565"
         d="m 10.457,28.626 c -0.398,-0.398 -0.398,-1.044 0,-1.443 l 17.9,-17.9 c -0.113,0.05 -0.221,0.116 -0.313,0.208 L 9.286,28.248 c -0.398,0.399 -0.398,1.045 0,1.443 1.992,1.992 5.223,1.992 7.214,0 l 0.595,-0.595 c -1.997,1.487 -4.825,1.342 -6.638,-0.47 z"
         inkscape:connector-curvature="0"
         style="fill:#ddaf6d" />
      <path
         id="path4567"
         d="M 3.661,22.675 4.647,21.69 C 4.306,21.794 3.924,21.723 3.654,21.454 1.851,19.65 1.793,16.599 3.329,14.602 l -0.846,0.846 c -1.952,1.952 -1.952,5.118 0,7.071 0.321,0.32 0.799,0.362 1.178,0.156 z"
         inkscape:connector-curvature="0"
         style="fill:#ddaf6d" />
      <path
         id="path4569"
         d="m 30.828,1.171 c 1.563,1.563 1.563,4.099 0,5.663 L 6.834,30.827 c -1.563,1.564 -4.099,1.564 -5.662,0 -1.563,-1.563 -1.563,-4.099 0,-5.662 L 25.166,1.171 c 1.563,-1.564 4.099,-1.564 5.662,0 z"
         inkscape:connector-curvature="0"
         style="fill:#e37948" />
      <path
         id="path4571"
         d="m 22.988,6.012 c -0.553,0 -1.001,0.448 -1.001,1.001 v 1.992 h -2.008 c -0.423,0 -0.779,0.262 -0.927,0.631 -0.051,0.121 -0.08,0.253 -0.08,0.393 v 1.993 h -1.939 l -0.045,-0.009 c -0.141,0 -0.275,0.031 -0.396,0.084 -0.369,0.148 -0.629,0.505 -0.629,0.926 l 0.024,0.126 v 1.856 H 13.98 c -0.422,0 -0.778,0.262 -0.927,0.63 -0.052,0.121 -0.081,0.254 -0.081,0.395 v 1.993 h -1.935 l -0.048,-0.01 c -0.143,0 -0.277,0.031 -0.399,0.085 -0.368,0.147 -0.628,0.505 -0.628,0.925 l 0.025,0.126 v 1.858 H 7.98 c -0.553,0 -1.002,0.447 -1.002,1 0,0.553 0.449,1.002 1.002,1.002 h 2.966 l 0.044,0.009 c 0.553,0 1.001,-0.448 1.001,-1.001 v -1.992 h 1.934 l 0.048,0.01 c 0.553,0 1.002,-0.449 1.002,-1.002 v -2.024 h 1.971 l 0.043,0.009 c 0.554,0 1.002,-0.447 1.002,-1 v -1.993 h 1.938 l 0.044,0.009 c 0.553,0 1,-0.447 1,-1 v -2.025 h 1.967 l 0.049,0.01 c 0.554,0 1.002,-0.448 1.002,-1.001 V 7.013 C 23.99,6.46 23.542,6.012 22.988,6.012 z"
         inkscape:connector-curvature="0"
         style="fill:#efc75e" />
      <path
         id="path4573"
         d="m 7.834,29.827 c -1.563,1.564 -4.099,1.564 -5.662,0 -1.563,-1.563 -1.563,-4.099 0,-5.662 l -1,1 c -1.563,1.563 -1.563,4.099 0,5.662 1.563,1.564 4.099,1.564 5.662,0 L 30.828,6.834 7.834,29.827 z"
         inkscape:connector-curvature="0"
         style="fill:#cc6d41" />
    </g>
    <g
       id="g4850"
       transform="matrix(3.1895904,0,0,3.1895904,73.452787,891.6101)">
      <path
         id="path4772"
         d="m 3,1.995 h 26.001 v 26 H 3 v -26 z"
         inkscape:connector-curvature="0"
         style="fill:#e4e7e7" />
      <path
         id="path4774"
         d="m 5.017,-0.005 h 21.934 l 2.051,1.996 H 3 l 2.017,-1.996 z"
         inkscape:connector-curvature="0"
         style="fill:#ccd0d2" />
      <path
         id="path4776"
         d="m 5,25.995 h 6 v -15 H 5 v 15 z m 8,0 h 6.001 v -15 H 13 v 15 z m 8.001,-15 v 15 h 6 v -15 h -6 z"
         inkscape:connector-curvature="0"
         style="fill:#26a6d1" />
      <path
         id="path4778"
         d="m 3,10.995 h 26.001 v 2 H 3 v -2 z"
         inkscape:connector-curvature="0"
         style="fill:#b6b9b9" />
      <path
         id="path4780"
         d="M 32,7.986 28.791,4.993 H 3.225 L 0.015,7.986 H 0.007 v 2.003 c 0,0.553 0.448,1.001 1,1.001 h 30 c 0.553,0 1,-0.448 1,-1.001 V 7.986 H 32 z"
         inkscape:connector-curvature="0"
         style="fill:#e4e7e7" />
      <g
         id="g4782"
         style="fill:#2295bc">
        <polygon
           id="polygon4784"
           points="9,20.995 9,17.995 5,17.995 5,25.995 11,25.995 11,20.995 " />
        <rect
           id="rect4786"
           height="5"
           width="2"
           y="20.995001"
           x="13" />
        <rect
           id="rect4788"
           height="3"
           width="1"
           y="22.995001"
           x="18.000999" />
        <polygon
           id="polygon4790"
           points="22.001,17.995 22.001,22.995 21.001,22.995 21.001,25.995 27.001,25.995 27.001,17.995 " />
      </g>
      <path
         id="path4792"
         d="M 7,21.995 H 3 c -1.104,0 -2,0.896 -2,2 v 2 c 0,1.104 0.896,2 2,2 h 4 c 1.104,0 2,-0.896 2,-2 v -2 c 0,-1.104 -0.896,-2 -2,-2 z m 22.001,0 h -4 c -1.105,0 -2,0.896 -2,2 v 2 c 0,1.104 0.895,2 2,2 h 4 c 1.104,0 2,-0.896 2,-2 v -2 c 0,-1.104 -0.896,-2 -2,-2 z"
         inkscape:connector-curvature="0"
         style="fill:#51bba8" />
      <g
         id="g4794"
         style="fill:#419687">
        <path
           id="path4796"
           d="M 8,26.995 H 4 c -1.104,0 -2,-0.896 -2,-2 v -2 C 2,22.702 2.066,22.426 2.18,22.175 1.486,22.488 1,23.184 1,23.995 v 2 c 0,1.104 0.896,2 2,2 h 4 c 0.812,0 1.506,-0.485 1.82,-1.181 C 8.569,26.93 8.293,26.995 8,26.995 z m 22.001,0 h -4 c -1.105,0 -2,-0.896 -2,-2 v -2 c 0,-0.293 0.064,-0.569 0.18,-0.82 -0.695,0.313 -1.18,1.009 -1.18,1.82 v 2 c 0,1.104 0.895,2 2,2 h 4 c 0.811,0 1.506,-0.485 1.818,-1.181 -0.249,0.116 -0.525,0.181 -0.818,0.181 z"
           inkscape:connector-curvature="0" />
      </g>
      <g
         id="g4798"
         style="fill:#2295bc">
        <rect
           id="rect4800"
           height="2"
           width="6"
           y="10.995"
           x="21.000999" />
        <rect
           id="rect4802"
           height="2"
           width="6"
           y="10.995"
           x="5" />
        <rect
           id="rect4804"
           height="2"
           width="6.0009999"
           y="10.995"
           x="13" />
      </g>
      <polygon
         id="polygon4806"
         points="0,7.995 31.994,7.995 31.994,7.986 31.984,7.986 28.777,4.995 3.21,4.995 0.001,7.986 0,7.986 "
         style="fill:#c2c5c5" />
      <polygon
         id="polygon4808"
         points="0,7.995 31.994,7.995 31.994,7.986 31.984,7.986 28.777,4.995 3.21,4.995 0.001,7.986 0,7.986 "
         style="fill:#c2c5c5" />
      <g
         id="g4810"
         style="fill:#e2574c">
        <polygon
           id="polygon4812"
           points="7,7.995 8.438,4.995 6.438,4.995 5,7.995 5,10.99 7,10.99 " />
        <polygon
           id="polygon4814"
           points="11,7.995 12,4.995 10,4.995 9,7.995 9,10.99 11,10.99 " />
        <path
           id="path4816"
           d="m 3,7.995 2,-3 H 3.223 L 0.015,7.986 H 0.007 v 2.003 c 0,0.553 0.448,1.001 1,1.001 H 3 V 7.995 z m 28.994,0 L 31.97,7.958 28.792,4.995 h -1.799 l 2,3 v 2.995 h 2.014 c 0.527,0 0.951,-0.414 0.986,-0.933 V 7.995 z"
           inkscape:connector-curvature="0" />
        <rect
           id="rect4818"
           height="5.9949999"
           width="2"
           y="4.9949999"
           x="13" />
        <polygon
           id="polygon4820"
           points="26.994,10.99 26.994,7.995 25.556,4.995 23.556,4.995 24.994,7.995 24.994,10.99 " />
        <polygon
           id="polygon4822"
           points="22.994,10.99 22.994,7.995 21.994,4.995 19.994,4.995 20.994,7.995 20.994,10.99 " />
        <rect
           id="rect4824"
           height="5.9949999"
           width="2"
           y="4.9949999"
           x="17.000999" />
      </g>
      <g
         id="g4826"
         style="fill:#c04a40">
        <polygon
           id="polygon4828"
           points="24.994,7.995 26.994,7.995 25.556,4.995 23.556,4.995 " />
        <polygon
           id="polygon4830"
           points="20.994,7.995 22.994,7.995 21.994,4.995 19.994,4.995 " />
        <rect
           id="rect4832"
           height="3"
           width="2"
           y="4.9949999"
           x="13" />
        <polygon
           id="polygon4834"
           points="11,7.995 12,4.995 10,4.995 9,7.995 " />
        <polygon
           id="polygon4836"
           points="7,7.995 8.438,4.995 6.438,4.995 5,7.995 " />
        <rect
           id="rect4838"
           height="3"
           width="2"
           y="4.9949999"
           x="17.000999" />
        <polygon
           id="polygon4840"
           points="26.994,4.995 28.994,7.995 31.994,7.995 31.97,7.958 28.792,4.995 " />
        <polygon
           id="polygon4842"
           points="3.223,4.995 0.015,7.986 0.007,7.986 0.007,7.995 3,7.995 5,4.995 " />
      </g>
    </g>
  </g>
</svg>
