<?xml version="1.0" encoding="UTF-8" standalone="no"?>
<svg
   xmlns:dc="http://purl.org/dc/elements/1.1/"
   xmlns:cc="http://creativecommons.org/ns#"
   xmlns:rdf="http://www.w3.org/1999/02/22-rdf-syntax-ns#"
   xmlns:svg="http://www.w3.org/2000/svg"
   xmlns="http://www.w3.org/2000/svg"
   xmlns:sodipodi="http://sodipodi.sourceforge.net/DTD/sodipodi-0.dtd"
   xmlns:inkscape="http://www.inkscape.org/namespaces/inkscape"
   width="256"
   height="256"
   viewBox="0 0 256 256"
   id="svg3075"
   version="1.1"
   inkscape:version="0.48.5 r10040"
   sodipodi:docname="medal.svg">
  <metadata
     id="metadata3091">
    <rdf:RDF>
      <cc:Work
         rdf:about="">
        <dc:format>image/svg+xml</dc:format>
        <dc:type
           rdf:resource="http://purl.org/dc/dcmitype/StillImage" />
        <dc:title></dc:title>
      </cc:Work>
    </rdf:RDF>
  </metadata>
  <defs
     id="defs3089" />
  <sodipodi:namedview
     pagecolor="#ffffff"
     bordercolor="#666666"
     borderopacity="1"
     objecttolerance="10"
     gridtolerance="10"
     guidetolerance="10"
     inkscape:pageopacity="0"
     inkscape:pageshadow="2"
     inkscape:window-width="1204"
     inkscape:window-height="826"
     id="namedview3087"
     showgrid="false"
     fit-margin-top="0"
     fit-margin-left="0"
     fit-margin-right="0"
     fit-margin-bottom="0"
     inkscape:zoom="1.4325"
     inkscape:cx="17.019197"
     inkscape:cy="53.759667"
     inkscape:window-x="0"
     inkscape:window-y="0"
     inkscape:window-maximized="0"
     inkscape:current-layer="svg3075" />
  <path
     d="M 111.57137,120.1622 152.04359,145.62013 111.34354,216 96.51207,193.45887 67.591687,193.59106 111.57137,120.1622 z"
     id="path3079"
     inkscape:connector-curvature="0"
     style="fill:#324d5b" />
  <path
     d="m 147.43917,120.42659 -40.47222,25.3848 40.70006,70.18861 14.83147,-22.47645 28.92038,0.12939 -43.97969,-73.22635 z"
     id="path3081"
     inkscape:connector-curvature="0"
     style="fill:#445d6a" />
  <path
     d="m 197.01055,103.50527 c 0,5.70139 -8.26377,10.24112 -9.67013,15.5009 -1.45699,5.44262 3.38651,13.49543 0.63286,18.25736 -2.79584,4.83507 -12.21845,4.64662 -16.13939,8.57037 -3.92093,3.92374 -3.73529,13.34354 -8.57035,16.13938 -4.76194,2.75646 -12.81757,-2.08422 -18.25737,-0.63286 -5.25978,1.40635 -9.7967,9.66731 -15.5009,9.66731 -5.70419,0 -10.24392,-8.26096 -15.50089,-9.66731 -5.44262,-1.45418 -13.49825,3.38651 -18.26018,0.63286 -4.83225,-2.79584 -4.64661,-12.21846 -8.57036,-16.13938 -3.92093,-3.92375 -13.34073,-3.73811 -16.13657,-8.57037 -2.75647,-4.76193 2.08422,-12.81756 0.63286,-18.25736 C 70.26377,113.74639 62,109.20666 62,103.50527 62,97.80389 70.26377,93.26135 71.67013,88.00438 73.12431,82.561761 68.2808,74.50613 71.03727,69.7442 c 2.79584,-4.83226 12.21845,-4.64662 16.13938,-8.57036 3.92094,-3.920931 3.7353,-13.343544 8.56755,-16.136575 4.76475,-2.75646 12.82037,2.084232 18.26018,0.63005 C 119.26135,44.263772 123.80108,36 129.50527,36 c 5.7042,0 10.24393,8.263772 15.5009,9.667315 5.44262,1.456994 13.49543,-3.38651 18.26018,-0.63005 4.83225,2.795843 4.64661,12.218457 8.56754,16.139395 3.92375,3.92092 13.34355,3.73528 16.13939,8.56754 2.75365,4.76475 -2.08422,12.820369 -0.63286,18.26018 1.40636,5.25697 9.67013,9.79951 9.67013,15.50089 z"
     id="path3083"
     inkscape:connector-curvature="0"
     style="fill:#efc75e" />
  <path
     d="m 129.50527,55.68904 c -26.40862,0 -47.81623,21.407606 -47.81623,47.81623 0,26.40863 21.40761,47.81624 47.81623,47.81624 26.40863,0 47.81624,-21.40761 47.81624,-47.81624 0,-26.408624 -21.40761,-47.81623 -47.81624,-47.81623 z m 0,90.00703 c -23.30056,0 -42.19079,-18.89023 -42.19079,-42.1908 0,-23.300573 18.89023,-42.19079 42.19079,-42.19079 23.30057,0 42.1908,18.890217 42.1908,42.19079 0,23.30057 -18.89023,42.1908 -42.1908,42.1908 z m 22.333,-48.96382 c -0.39097,-1.08571 -1.38948,-1.88171 -2.59333,-2.05329 l -11.70935,-1.68763 -5.09102,-10.224243 c -0.53442,-1.074456 -1.6792,-1.76076 -2.9393,-1.76076 -1.2601,0 -2.40488,0.686304 -2.94211,1.76076 l -5.09102,10.224243 -11.71215,1.68763 c -1.20385,0.17439 -2.20237,0.97039 -2.59052,2.05329 -0.38815,1.09133 -0.0928,2.28955 0.75661,3.11086 l 8.58162,8.28909 -1.9886,11.50402 c -0.20251,1.15603 0.31503,2.32049 1.33323,2.99836 0.55973,0.37128 1.21791,0.55692 1.87328,0.55692 0.53722,0 1.08008,-0.12657 1.5723,-0.37972 l 10.20736,-5.31604 10.21018,5.32167 c 0.49222,0.25315 1.03227,0.37972 1.57231,0.37972 0.65536,0 1.31354,-0.18564 1.87327,-0.55692 1.01539,-0.67787 1.53293,-1.84234 1.33323,-2.99837 l -1.99141,-11.50401 8.58442,-8.28909 c 0.84663,-0.82694 1.13634,-2.02516 0.751,-3.11649 z"
     id="path3085"
     inkscape:connector-curvature="0"
     style="fill:#fce29c" />
</svg>
