<?xml version="1.0" encoding="UTF-8" standalone="no"?>
<svg
   xmlns:dc="http://purl.org/dc/elements/1.1/"
   xmlns:cc="http://creativecommons.org/ns#"
   xmlns:rdf="http://www.w3.org/1999/02/22-rdf-syntax-ns#"
   xmlns:svg="http://www.w3.org/2000/svg"
   xmlns="http://www.w3.org/2000/svg"
   xmlns:xlink="http://www.w3.org/1999/xlink"
   xmlns:sodipodi="http://sodipodi.sourceforge.net/DTD/sodipodi-0.dtd"
   xmlns:inkscape="http://www.inkscape.org/namespaces/inkscape"
   width="256"
   height="256"
   viewBox="0 0 256 256"
   id="svg3261"
   version="1.1"
   inkscape:version="0.48.5 r10040"
   sodipodi:docname="printer.svg">
  <metadata
     id="metadata3293">
    <rdf:RDF>
      <cc:Work
         rdf:about="">
        <dc:format>image/svg+xml</dc:format>
        <dc:type
           rdf:resource="http://purl.org/dc/dcmitype/StillImage" />
        <dc:title></dc:title>
      </cc:Work>
    </rdf:RDF>
  </metadata>
  <sodipodi:namedview
     pagecolor="#ffffff"
     bordercolor="#666666"
     borderopacity="1"
     objecttolerance="10"
     gridtolerance="10"
     guidetolerance="10"
     inkscape:pageopacity="0"
     inkscape:pageshadow="2"
     inkscape:window-width="1102"
     inkscape:window-height="748"
     id="namedview3291"
     showgrid="false"
     inkscape:zoom="1.18"
     inkscape:cx="50"
     inkscape:cy="50"
     inkscape:window-x="0"
     inkscape:window-y="0"
     inkscape:window-maximized="0"
     inkscape:current-layer="svg3261" />
  <path
     d="m 130,36 c -49.7052,0 -90,40.2948 -90,90 0,49.7052 40.2948,90 90,90 49.7052,0 90,-40.2948 90,-90 0,-49.7052 -40.2948,-90 -90,-90 z"
     id="path3263"
     inkscape:connector-curvature="0"
     style="fill:#e2574c" />
  <defs
     id="defs3265">
    <path
       id="a"
       d="M 50,0 C 22.386,0 0,22.386 0,50 0,77.614 22.386,100 50,100 77.614,100 100,77.614 100,50 100,22.386 77.614,0 50,0 z"
       inkscape:connector-curvature="0" />
  </defs>
  <clipPath
     id="b">
    <use
       xlink:href="#a"
       overflow="visible"
       id="use3269"
       style="overflow:visible"
       x="0"
       y="0"
       width="100"
       height="100" />
  </clipPath>
  <g
     clip-path="url(#b)"
     id="g3271"
     transform="matrix(1.8,0,0,1.8,40,36)">
    <path
       d="m 19,56 h 82 c 1.656,0 3,1.343 3,3 v 51 c 0,1.657 -1.344,3 -3,3 H 19 c -1.657,0 -3,-1.343 -3,-3 V 59 c 0,-1.657 1.343,-3 3,-3 z"
       id="path3273"
       inkscape:connector-curvature="0"
       style="fill:#e4e7e7" />
    <path
       d="m 16,79 h 80 v 21 H 16 V 79 z"
       id="path3275"
       inkscape:connector-curvature="0"
       style="fill:#d8dbdb" />
    <path
       d="m 36,50 h 65 c 1.656,0 3,1.344 3,3 v 14 c 0,1.657 -1.344,3.001 -3,3.001 H 36 c -1.657,0 -3,-1.344 -3,-3.001 V 53 c 0,-1.656 1.343,-3 3,-3 z"
       id="path3277"
       inkscape:connector-curvature="0"
       style="fill:#324d5b" />
    <path
       d="m 43,56.999 h 56 c 1.104,0 2,0.896 2,2.001 v 2.001 C 101,62.105 100.104,63 99,63 H 43 c -1.104,0 -2,-0.896 -2,-1.999 V 59 c 0,-1.105 0.896,-2.001 2,-2.001 z"
       id="path3279"
       inkscape:connector-curvature="0"
       style="fill:#283e49" />
    <path
       d="m 36,86 c 1.657,0 3,1.343 3,3 0,1.657 -1.343,3 -3,3 -1.657,0 -3,-1.343 -3,-3 0,-1.657 1.343,-3 3,-3 z"
       id="path3281"
       inkscape:connector-curvature="0"
       style="fill:#3db39e" />
    <path
       d="m 46,86 c 1.657,0 3,1.343 3,3 0,1.657 -1.343,3 -3,3 -1.657,0 -3,-1.343 -3,-3 0,-1.657 1.343,-3 3,-3 z"
       id="path3283"
       inkscape:connector-curvature="0"
       style="fill:#324d5b" />
    <path
       d="m 45,20 h -5 c -2.761,0 -5,2.239 -5,5 v 6 c 0,2.762 2.239,5 5,5 h 5 c 2.761,0 5,-2.238 5,-5 v -6 c 0,-2.761 -2.239,-5 -5,-5 z"
       id="path3285"
       inkscape:connector-curvature="0"
       style="fill:#ccd0d2" />
    <path
       d="M 97,20 H 40 c 2.762,0 5,2.239 5,5 v 35 h 55 V 23 c 0,-1.657 -1.344,-3 -3,-3 z"
       id="path3287"
       inkscape:connector-curvature="0"
       style="fill:#f3f3f3" />
    <path
       d="m 54.5,31 h 45 c 0.828,0 1.5,-0.671 1.5,-1.5 0,-0.829 -0.672,-1.5 -1.5,-1.5 h -45 c -0.828,0 -1.5,0.671 -1.5,1.5 0,0.829 0.672,1.5 1.5,1.5 z m 45,4 h -45 c -0.828,0 -1.5,0.672 -1.5,1.5 0,0.829 0.672,1.5 1.5,1.5 h 45 c 0.828,0 1.5,-0.672 1.5,-1.5 0,-0.828 -0.672,-1.5 -1.5,-1.5 z m 0,7 h -45 c -0.828,0 -1.5,0.672 -1.5,1.5 0,0.828 0.672,1.5 1.5,1.5 h 45 c 0.828,0 1.5,-0.672 1.5,-1.5 0,-0.828 -0.672,-1.5 -1.5,-1.5 z m 0,7 h -45 c -0.828,0 -1.5,0.671 -1.5,1.5 0,0.828 0.672,1.5 1.5,1.5 h 45 c 0.828,0 1.5,-0.672 1.5,-1.5 0,-0.829 -0.672,-1.5 -1.5,-1.5 z"
       id="path3289"
       inkscape:connector-curvature="0"
       style="fill:#dfe1e2" />
  </g>
</svg>
