<?xml version="1.0" encoding="UTF-8" standalone="no"?>
<!-- Created with Inkscape (http://www.inkscape.org/) -->

<svg
   xmlns:dc="http://purl.org/dc/elements/1.1/"
   xmlns:cc="http://creativecommons.org/ns#"
   xmlns:rdf="http://www.w3.org/1999/02/22-rdf-syntax-ns#"
   xmlns:svg="http://www.w3.org/2000/svg"
   xmlns="http://www.w3.org/2000/svg"
   xmlns:sodipodi="http://sodipodi.sourceforge.net/DTD/sodipodi-0.dtd"
   xmlns:inkscape="http://www.inkscape.org/namespaces/inkscape"
   width="744.09448819"
   height="1052.3622047"
   id="svg2"
   version="1.1"
   inkscape:version="0.48.5 r10040"
   sodipodi:docname="New document 1">
  <defs
     id="defs4" />
  <sodipodi:namedview
     id="base"
     pagecolor="#ffffff"
     bordercolor="#666666"
     borderopacity="1.0"
     inkscape:pageopacity="0.0"
     inkscape:pageshadow="2"
     inkscape:zoom="1"
     inkscape:cx="394.8679"
     inkscape:cy="840"
     inkscape:document-units="px"
     inkscape:current-layer="layer1"
     showgrid="false"
     inkscape:window-width="1009"
     inkscape:window-height="698"
     inkscape:window-x="0"
     inkscape:window-y="0"
     inkscape:window-maximized="0" />
  <metadata
     id="metadata7">
    <rdf:RDF>
      <cc:Work
         rdf:about="">
        <dc:format>image/svg+xml</dc:format>
        <dc:type
           rdf:resource="http://purl.org/dc/dcmitype/StillImage" />
        <dc:title></dc:title>
      </cc:Work>
    </rdf:RDF>
  </metadata>
  <g
     inkscape:label="Base"
     inkscape:groupmode="layer"
     id="layer1">
    <path
       style="font-size:183.49099731px;font-style:normal;font-variant:normal;font-weight:normal;font-stretch:condensed;text-align:start;line-height:244.00000572%;letter-spacing:0px;word-spacing:0px;writing-mode:lr-tb;text-anchor:start;fill:none;stroke:#008000;stroke-width:3;stroke-miterlimit:4;font-family:Impact;-inkscape-font-specification:Impact Condensed"
       d="M 216.84375 54.125 C 202.5349 54.125117 190.86964 56.187614 181.8125 60.3125 C 172.83142 64.390731 167.37152 68.890727 165.46875 73.8125 C 163.56598 78.734465 162.625 86.65633 162.625 97.53125 L 162.625 131.34375 C 162.625 139.1719 163.08666 145.06253 164 149 C 164.91331 152.89065 167.19042 156.59377 170.84375 160.15625 C 174.49704 163.71876 179.81029 166.71876 186.8125 169.15625 C 193.89075 171.54688 201.46347 172.75 209.53125 172.75 C 216.30504 172.75 222.17774 171.89062 227.125 170.15625 C 232.14823 168.375 236.28966 165.73438 239.5625 162.21875 L 244.03125 170.375 L 274.28125 170.375 L 274.28125 109.25 L 218 109.25 L 218 126.5625 L 227.6875 126.5625 L 227.6875 140.0625 C 227.68742 145.3594 227.0438 148.92191 225.75 150.75 C 224.53216 152.57815 222.18853 153.50001 218.6875 153.5 C 215.49079 153.50001 213.34674 152.68752 212.28125 151.09375 C 211.21565 149.45314 210.68745 146.07815 210.6875 140.96875 L 210.6875 86.34375 C 210.68745 80.531342 211.21565 76.906344 212.28125 75.5 C 213.34674 74.093847 215.37538 73.406347 218.34375 73.40625 C 221.76866 73.406347 223.93035 74.234472 224.84375 75.875 C 225.757 77.515719 226.21868 81.578211 226.21875 88.09375 L 226.21875 98.4375 L 274.28125 98.4375 L 274.28125 93.5 C 274.28114 84.17196 272.87848 77.093844 270.0625 72.21875 C 267.2463 67.296979 261.19166 63.031357 251.90625 59.46875 C 242.62065 55.906364 230.92416 54.125117 216.84375 54.125 z M 347 54.125 C 336.57278 54.125117 327.43311 55.20324 319.59375 57.3125 C 311.75432 59.421986 305.51773 62.437608 300.875 66.375 C 296.30834 70.3126 293.56958 74.656344 292.65625 79.4375 C 291.81902 84.171958 291.40625 92.28132 291.40625 103.71875 L 291.40625 123.1875 C 291.40625 134.90628 291.86791 143.09377 292.78125 147.78125 C 293.69456 152.46876 296.54876 156.82815 301.34375 160.8125 C 306.1387 164.79689 312.44183 167.79687 320.28125 169.8125 C 328.19672 171.78124 337.10556 172.75 347 172.75 C 357.42709 172.75 366.56676 171.70312 374.40625 169.59375 C 382.24556 167.48438 388.43325 164.46875 393 160.53125 C 397.64264 156.59376 400.38142 152.23438 401.21875 147.5 C 402.13196 142.71877 402.59364 134.62503 402.59375 123.1875 L 402.59375 103.71875 C 402.59364 92.000071 402.13196 83.781341 401.21875 79.09375 C 400.30531 74.406347 397.45111 70.078226 392.65625 66.09375 C 387.86117 62.109483 381.50917 59.125111 373.59375 57.15625 C 365.75427 55.14074 356.89432 54.125117 347 54.125 z M 420.625 56.53125 L 420.625 170.375 L 497.9375 170.375 L 497.9375 147.59375 L 468.6875 147.59375 L 468.6875 56.53125 L 420.625 56.53125 z M 509.6875 56.53125 L 509.6875 170.375 L 557.75 170.375 L 557.75 122.5625 L 587.4375 122.5625 L 587.4375 100.90625 L 557.75 100.90625 L 557.75 79.3125 L 591.09375 79.3125 L 591.09375 56.53125 L 509.6875 56.53125 z M 347.21875 73.40625 C 350.18701 73.406347 352.1491 74.156346 353.0625 75.65625 C 354.05187 77.109468 354.53117 80.484466 354.53125 85.78125 L 354.53125 138.09375 C 354.53117 144.7969 354.0695 149.03127 353.15625 150.8125 C 352.24285 152.59377 350.14769 153.50001 346.875 153.5 C 343.6783 153.50001 341.63201 152.70313 340.71875 151.15625 C 339.88147 149.60939 339.4687 145.5469 339.46875 138.9375 L 339.46875 85.78125 C 339.4687 79.921968 340.11231 76.390718 341.40625 75.21875 C 342.77618 74.000096 344.70704 73.406347 347.21875 73.40625 z "
       id="path4911" />
  </g>
</svg>
