<?xml version="1.0" encoding="UTF-8" standalone="no"?>
<!-- Generator: Adobe Illustrator 16.0.0, SVG Export Plug-In . SVG Version: 6.00 Build 0)  -->

<svg
   xmlns:dc="http://purl.org/dc/elements/1.1/"
   xmlns:cc="http://creativecommons.org/ns#"
   xmlns:rdf="http://www.w3.org/1999/02/22-rdf-syntax-ns#"
   xmlns:svg="http://www.w3.org/2000/svg"
   xmlns="http://www.w3.org/2000/svg"
   xmlns:sodipodi="http://sodipodi.sourceforge.net/DTD/sodipodi-0.dtd"
   xmlns:inkscape="http://www.inkscape.org/namespaces/inkscape"
   version="1.1"
   id="Layer_1"
   x="0px"
   y="0px"
   width="256"
   height="256"
   viewBox="0 0 256.00001 256"
   enable-background="new 0 0 136.913 136.914"
   xml:space="preserve"
   inkscape:version="0.48.5 r10040"
   sodipodi:docname="wallet.svg"><metadata
     id="metadata3546"><rdf:RDF><cc:Work
         rdf:about=""><dc:format>image/svg+xml</dc:format><dc:type
           rdf:resource="http://purl.org/dc/dcmitype/StillImage" /><dc:title></dc:title></cc:Work></rdf:RDF></metadata><defs
     id="defs3544" /><sodipodi:namedview
     pagecolor="#ffffff"
     bordercolor="#666666"
     borderopacity="1"
     objecttolerance="10"
     gridtolerance="10"
     guidetolerance="10"
     inkscape:pageopacity="0"
     inkscape:pageshadow="2"
     inkscape:window-width="1035"
     inkscape:window-height="725"
     id="namedview3542"
     showgrid="false"
     inkscape:zoom="1.7237098"
     inkscape:cx="68.456497"
     inkscape:cy="114.86853"
     inkscape:window-x="0"
     inkscape:window-y="0"
     inkscape:window-maximized="0"
     inkscape:current-layer="Layer_1" /><path
     style="fill:#525252"
     inkscape:connector-curvature="0"
     id="path3476"
     d="m 202.98906,172.32225 c 0,8.59442 -2.01611,8.43041 -11.02054,8.43041 H 70.486639 c -9.008436,0 -16.308789,-6.96834 -16.308789,-15.56275 V 92.136372 c 0,-8.594416 7.300353,-15.566753 16.308789,-15.566753 H 191.09848 c 9.00843,0 11.89058,3.082149 11.89058,11.676565 v 84.076066 z" /><path
     style="fill:#444545"
     inkscape:connector-curvature="0"
     id="path3478"
     d="m 199.8169,169.73013 c 0,8.59441 -2.47212,8.43041 -11.09454,8.43041 H 72.958758 c -8.622417,0 -15.614755,-6.96834 -15.614755,-15.56276 V 96.134566 c 0,-8.594416 6.992338,-15.562753 15.614755,-15.562753 H 189.73841 c 8.62642,0 10.07849,3.94219 10.07849,12.536606 v 76.621711 z" /><g
     id="g3482"
     transform="matrix(2.0000968,0,0,2.0000968,-7.4611333,-11.402639)"><g
       id="g3484"><rect
         x="47.832001"
         y="46.509998"
         transform="matrix(0.9912,0.1322,-0.1322,0.9912,8.2736,-9.2332)"
         width="51.678001"
         height="22.362"
         id="rect3486"
         style="fill:#63bd6e" /><path
         d="m 97.069,71.06 -49.484,-6.598 2.686,-20.143 49.484,6.6 -2.686,20.141 z m 2.178,-19.678 -48.609,-6.48 -2.547,19.1 48.611,6.479 2.545,-19.099 z"
         id="path3488"
         inkscape:connector-curvature="0"
         style="fill:#117f4a" /><path
         d="m 82.411,58.856 c 0.645,-4.828 -2.748,-9.264 -7.576,-9.91 -4.828,-0.643 -9.266,2.75 -9.906,7.578 -0.646,4.828 2.746,9.266 7.576,9.908 4.828,0.645 9.264,-2.747 9.906,-7.576 z"
         id="path3490"
         inkscape:connector-curvature="0"
         style="fill:#117f4a" /></g></g><g
     id="g3492"
     transform="matrix(2.0000968,0,0,2.0000968,-7.4611333,-11.402639)"><path
       d="m 72.468,64.966 0.193,-1.438 C 72.075,63.362 71.61,63.137 71.27,62.852 70.928,62.569 70.655,62.153 70.454,61.606 70.247,61.059 70.173,60.405 70.227,59.647 l 1.232,-0.1 c -0.012,0.773 0.078,1.361 0.266,1.764 0.264,0.555 0.633,0.891 1.094,1.01 l 0.613,-4.572 c -0.477,-0.174 -0.949,-0.471 -1.422,-0.887 -0.348,-0.301 -0.592,-0.691 -0.734,-1.17 -0.145,-0.479 -0.178,-1.008 -0.102,-1.584 0.137,-1.023 0.545,-1.811 1.229,-2.361 0.465,-0.369 1.1,-0.551 1.9,-0.543 l 0.092,-0.688 0.707,0.096 -0.094,0.686 c 0.68,0.18 1.199,0.496 1.551,0.953 0.455,0.592 0.678,1.354 0.666,2.281 l -1.268,0.049 c 0.006,-0.576 -0.084,-1.029 -0.268,-1.357 -0.182,-0.33 -0.463,-0.568 -0.84,-0.719 l -0.553,4.146 c 0.576,0.254 0.955,0.449 1.141,0.584 0.346,0.246 0.615,0.525 0.807,0.84 0.195,0.314 0.33,0.672 0.404,1.076 0.076,0.402 0.084,0.828 0.025,1.273 -0.137,1.002 -0.508,1.799 -1.123,2.393 -0.613,0.594 -1.342,0.857 -2.182,0.789 l -0.193,1.453 -0.707,-0.093 z m 1.678,-12.572 c -0.475,0.025 -0.867,0.203 -1.188,0.533 -0.314,0.328 -0.506,0.738 -0.57,1.229 -0.064,0.488 -0.008,0.916 0.176,1.277 0.182,0.361 0.531,0.676 1.051,0.945 l 0.531,-3.984 z m -0.62,10.021 c 0.473,-0.004 0.891,-0.195 1.25,-0.574 0.357,-0.377 0.578,-0.871 0.66,-1.48 0.072,-0.523 0.02,-0.957 -0.152,-1.299 -0.17,-0.346 -0.563,-0.686 -1.172,-1.021 l -0.586,4.374 z"
       id="path3494"
       inkscape:connector-curvature="0"
       style="fill:#63bd6e" /></g><g
     id="g3498"
     transform="matrix(2.0000968,0,0,2.0000968,-7.4611333,-11.402639)"><g
       id="g3500"><rect
         x="42.157001"
         y="41.646"
         transform="matrix(0.9105,-0.4134,0.4134,0.9105,-15.7563,32.8368)"
         width="51.68"
         height="22.360001"
         id="rect3502"
         style="fill:#63bd6e" /><path
         d="M 94.927,51.759 49.466,72.396 41.068,53.894 86.527,33.257 l 8.4,18.502 z M 86.341,33.919 41.687,54.19 49.654,71.737 94.308,51.464 86.341,33.919 z"
         id="path3504"
         inkscape:connector-curvature="0"
         style="fill:#117f4a" /><circle
         cx="67.997002"
         cy="52.827"
         r="8.8199997"
         id="circle3506"
         d="m 76.817001,52.827 c 0,4.871151 -3.948848,8.819999 -8.819999,8.819999 -4.871152,0 -8.82,-3.948848 -8.82,-8.819999 0,-4.871152 3.948848,-8.82 8.82,-8.82 4.871151,0 8.819999,3.948848 8.819999,8.82 z"
         sodipodi:cx="67.997002"
         sodipodi:cy="52.827"
         sodipodi:rx="8.8199997"
         sodipodi:ry="8.8199997"
         style="fill:#117f4a" /></g></g><g
     id="g3508"
     transform="matrix(2.0000968,0,0,2.0000968,-7.4611333,-11.402639)"><path
       d="m 70.833,59.632 -0.598,-1.318 c -0.586,0.17 -1.1,0.225 -1.537,0.164 -0.439,-0.061 -0.893,-0.266 -1.355,-0.625 -0.461,-0.355 -0.873,-0.869 -1.229,-1.541 l 0.992,-0.74 c 0.402,0.664 0.789,1.117 1.16,1.357 0.52,0.33 1.008,0.422 1.465,0.275 l -1.908,-4.199 c -0.494,0.104 -1.053,0.104 -1.672,0 -0.455,-0.07 -0.869,-0.273 -1.244,-0.602 -0.375,-0.33 -0.686,-0.76 -0.926,-1.289 -0.426,-0.941 -0.496,-1.826 -0.211,-2.656 0.199,-0.561 0.641,-1.049 1.324,-1.467 l -0.284,-0.631 0.648,-0.295 0.287,0.631 c 0.668,-0.207 1.277,-0.211 1.816,-0.014 0.701,0.262 1.295,0.789 1.775,1.584 l -1.047,0.711 C 67.984,48.487 67.67,48.153 67.34,47.969 67.012,47.785 66.647,47.731 66.248,47.805 l 1.729,3.809 c 0.623,-0.09 1.049,-0.125 1.277,-0.109 0.422,0.025 0.801,0.119 1.131,0.285 0.332,0.16 0.633,0.395 0.912,0.695 0.279,0.303 0.51,0.658 0.695,1.07 0.418,0.92 0.523,1.793 0.318,2.621 -0.209,0.83 -0.686,1.439 -1.434,1.826 l 0.605,1.334 -0.648,0.296 z M 65.591,48.085 c -0.389,0.273 -0.627,0.633 -0.723,1.078 -0.092,0.447 -0.037,0.896 0.168,1.346 0.203,0.451 0.479,0.781 0.824,0.992 0.348,0.209 0.813,0.291 1.391,0.244 l -1.66,-3.66 z m 4.791,8.824 c 0.398,-0.252 0.646,-0.635 0.752,-1.148 0.104,-0.51 0.029,-1.045 -0.227,-1.607 -0.215,-0.48 -0.488,-0.82 -0.814,-1.02 -0.328,-0.201 -0.84,-0.283 -1.537,-0.244 l 1.826,4.019 z"
       id="path3510"
       inkscape:connector-curvature="0"
       style="fill:#63bd6e" /></g><path
     d="m 196.18272,179.4566 c 0,8.59441 -3.40216,11.02453 -11.99658,11.02453 H 62.926273 c -8.594416,0 -8.750423,-0.80804 -8.750423,-9.40245 V 92.998414 c 0,0 0.09801,-2.110102 0.20401,-3.418166 0.226011,-2.958143 2.390115,-5.876284 2.390115,-5.876284 0,0 1.296063,5.406262 4.968241,6.914335 5.754278,2.368114 10.218494,2.164104 10.218494,2.164104 h 112.22743 c 8.59442,0 11.99658,1.128055 11.99658,9.722467 v 76.95173 z"
     id="path3514"
     inkscape:connector-curvature="0"
     style="fill:#616161" /><path
     d="m 188.50035,175.65441 c 0,7.29036 -2.56212,7.84038 -10.02448,7.84038 H 54.39186 V 99.050707 l 124.48202,0.054 c 7.46837,0 9.62647,2.062101 9.62647,9.348451 v 67.20125 z"
     id="path3530"
     inkscape:connector-curvature="0"
     style="fill:#616161" /><path
     d="m 203.25706,144.98093 h -38.90788 c -2.51612,0 -7.21035,-4.50822 -7.21035,-13.60666 0,-9.09844 4.69623,-13.34864 7.21035,-13.34864 h 38.90788 c 1.29407,0.002 1.15406,26.9553 0,26.9553 z"
     id="path3534"
     inkscape:connector-curvature="0"
     style="fill:#727172" /><path
     d="m 203.25706,147.14303 h -38.90788 c -2.51612,0 -7.21035,-4.50421 -7.21035,-13.60265 0,-9.09844 4.69623,-13.35265 7.21035,-13.35265 h 38.90788 c 1.29407,0 1.15406,26.9553 0,26.9553 z"
     id="path3536"
     inkscape:connector-curvature="0"
     style="fill:#575656" /><ellipse
     cx="88.417"
     cy="72.569"
     rx="2.539"
     ry="2.971"
     id="ellipse3538"
     d="m 90.956,72.569 c 0,1.640838 -1.136749,2.971 -2.539,2.971 -1.402251,0 -2.539,-1.330162 -2.539,-2.971 0,-1.640838 1.136749,-2.971 2.539,-2.971 1.402251,0 2.539,1.330162 2.539,2.971 z"
     sodipodi:cx="88.417"
     sodipodi:cy="72.569"
     sodipodi:rx="2.539"
     sodipodi:ry="2.971"
     style="fill:#d6cb78"
     transform="matrix(2.0000968,0,0,2.0000968,-7.4611333,-11.402639)" /><ellipse
     cx="88.417"
     cy="72.569"
     rx="2.0450001"
     ry="2.395"
     id="ellipse3540"
     d="m 90.462,72.569 c 0,1.322722 -0.915578,2.395 -2.045,2.395 -1.129423,0 -2.045,-1.072278 -2.045,-2.395 0,-1.322722 0.915577,-2.395 2.045,-2.395 1.129422,0 2.045,1.072278 2.045,2.395 z"
     sodipodi:cx="88.417"
     sodipodi:cy="72.569"
     sodipodi:rx="2.0450001"
     sodipodi:ry="2.395"
     style="fill:#ece17e"
     transform="matrix(2.0000968,0,0,2.0000968,-7.4611333,-11.402639)" /></svg>